<svg width="112" height="52" viewBox="0 0 112 52" fill="none" xmlns="http://www.w3.org/2000/svg">
<g filter="url(#filter0_b)">
<mask id="path-1-inside-1" fill="white">
<path d="M56.362 26.748C55.674 28.427 54.691 29.866 53.412 31.065C52.133 32.264 50.59 33.199 48.784 33.871C46.977 34.543 44.971 34.878 42.765 34.878C40.527 34.878 38.512 34.542 36.722 33.871C34.931 33.2 33.413 32.264 32.166 31.065C30.919 29.866 29.96 28.427 29.288 26.748C28.616 25.069 28.281 23.207 28.281 21.16V0.00899506H36.435V20.489C36.435 21.417 36.555 22.296 36.795 23.127C37.035 23.959 37.402 24.702 37.898 25.357C38.393 26.013 39.049 26.532 39.864 26.916C40.679 27.3 41.663 27.492 42.814 27.492C43.965 27.492 44.948 27.3 45.764 26.916C46.579 26.532 47.243 26.013 47.754 25.357C48.265 24.702 48.633 23.959 48.857 23.127C49.08 22.296 49.193 21.417 49.193 20.489V0.00899506H57.395V21.16C57.393 23.207 57.049 25.069 56.362 26.748ZM88.307 33.966V0.00899506H111.137V6.91599H96.22V13.343H110.321V19.914H96.22V26.964H112V33.966H88.307ZM17.796 0H17.568H13.478C11.72 0 10.025 0.191996 8.394 0.575996C6.763 0.959996 5.324 1.56699 4.077 2.39899C2.83 3.22999 1.839 4.325 1.103 5.684C0.421 6.944 0.056 9.168 0.006 11.057H0V33.966H8.202V21.16H12.279C14.037 21.16 15.732 20.968 17.363 20.584C18.994 20.2 20.433 19.593 21.68 18.761C22.927 17.93 23.918 16.835 24.654 15.476C25.315 14.255 25.678 12.781 25.745 11.056H25.771V0H17.796ZM17.075 12.503C16.755 13.031 16.315 13.455 15.756 13.774C15.196 14.094 14.564 14.318 13.861 14.445C13.157 14.573 12.422 14.637 11.655 14.637H8.202V11.455C8.202 11.451 8.202 10.651 8.202 10.647C8.202 9.847 8.362 9.184 8.682 8.657C9.002 8.129 9.442 7.70499 10.001 7.38599C10.561 7.06599 11.193 6.842 11.896 6.715C12.6 6.587 13.335 6.52299 14.102 6.52299H17.569V11.057C17.51 11.618 17.318 12.1 17.075 12.503ZM87.546 33.966L79.023 20.008C79.901 19.672 80.712 19.257 81.454 18.762C82.701 17.931 83.692 16.836 84.428 15.477C85.089 14.256 85.452 12.782 85.519 11.057H85.545V0H77.571H77.343H73.253C71.495 0 69.8 0.191996 68.169 0.575996C66.538 0.959996 65.099 1.56699 63.852 2.39899C62.605 3.22999 61.614 4.325 60.878 5.684C60.196 6.944 59.831 9.168 59.781 11.057H59.775V33.966H67.977V21.16H70.948L77.953 33.966H87.546ZM67.977 11.456C67.977 11.452 67.977 10.652 67.977 10.648C67.977 9.84799 68.137 9.185 68.457 8.658C68.777 8.13 69.217 7.70599 69.776 7.38699C70.336 7.06699 70.968 6.843 71.671 6.716C72.375 6.588 73.11 6.52399 73.877 6.52399H77.344V11.058C77.286 11.619 77.095 12.101 76.851 12.504C76.531 13.032 76.091 13.456 75.532 13.775C74.972 14.095 74.34 14.319 73.637 14.446C72.933 14.574 72.198 14.638 71.431 14.638H67.978L67.977 11.456ZM1.299 50.045H6.911V50.993H0.233V40.509H6.734V41.457H1.299V45.055H6.378V46.003H1.299V50.045ZM27.51 49.438H27.54V40.509H28.606V50.993H27.273L21.172 41.975H21.142V50.993H20.076V40.509H21.409L27.51 49.438ZM43.532 50.045H49.144V50.993H42.465V40.509H48.966V41.457H43.531V45.055H48.61V46.003H43.531V50.045H43.532ZM63.375 50.993H62.309V40.509H65.389C65.902 40.509 66.379 40.559 66.818 40.657C67.257 40.756 67.637 40.916 67.958 41.138C68.279 41.36 68.528 41.649 68.706 42.004C68.884 42.359 68.973 42.794 68.973 43.307C68.973 43.692 68.904 44.043 68.766 44.358C68.628 44.674 68.44 44.948 68.203 45.18C67.966 45.412 67.685 45.597 67.359 45.735C67.033 45.873 66.678 45.962 66.293 46.002L69.358 50.992H68.055L65.153 46.09H63.376L63.375 50.993ZM63.375 45.173H65.226C66.085 45.173 66.746 45.017 67.21 44.707C67.674 44.396 67.906 43.93 67.906 43.308C67.906 42.963 67.842 42.671 67.713 42.434C67.585 42.197 67.407 42.005 67.18 41.856C66.953 41.708 66.677 41.599 66.351 41.53C66.025 41.461 65.665 41.426 65.27 41.426H63.375V45.173ZM90.208 42.404C89.843 42.019 89.408 41.72 88.905 41.508C88.402 41.296 87.824 41.19 87.172 41.19C86.501 41.19 85.896 41.313 85.358 41.56C84.82 41.806 84.363 42.139 83.988 42.558C83.613 42.977 83.324 43.462 83.122 44.014C82.92 44.566 82.818 45.148 82.818 45.759C82.818 46.37 82.919 46.952 83.122 47.504C83.324 48.056 83.613 48.539 83.988 48.953C84.363 49.367 84.82 49.697 85.358 49.944C85.896 50.19 86.501 50.314 87.172 50.314C87.764 50.314 88.307 50.25 88.801 50.122C89.295 49.994 89.694 49.831 90.001 49.633V46.449H87.558V45.501H91.068V50.237C90.495 50.583 89.878 50.841 89.217 51.009C88.556 51.177 87.869 51.261 87.159 51.261C86.369 51.261 85.639 51.123 84.967 50.846C84.296 50.57 83.718 50.187 83.234 49.698C82.75 49.209 82.373 48.629 82.101 47.958C81.829 47.287 81.694 46.551 81.694 45.752C81.694 44.953 81.832 44.217 82.109 43.546C82.385 42.875 82.768 42.295 83.257 41.806C83.746 41.317 84.323 40.935 84.99 40.658C85.656 40.382 86.379 40.243 87.159 40.243C87.998 40.243 88.729 40.368 89.351 40.619C89.973 40.87 90.506 41.218 90.95 41.664L90.208 42.404ZM107.756 50.993H106.69V46.476L102.766 40.508H104.099L107.253 45.587L110.437 40.508H111.681L107.757 46.476V50.993H107.756Z"/>
</mask>
<path d="M56.362 26.748C55.674 28.427 54.691 29.866 53.412 31.065C52.133 32.264 50.59 33.199 48.784 33.871C46.977 34.543 44.971 34.878 42.765 34.878C40.527 34.878 38.512 34.542 36.722 33.871C34.931 33.2 33.413 32.264 32.166 31.065C30.919 29.866 29.96 28.427 29.288 26.748C28.616 25.069 28.281 23.207 28.281 21.16V0.00899506H36.435V20.489C36.435 21.417 36.555 22.296 36.795 23.127C37.035 23.959 37.402 24.702 37.898 25.357C38.393 26.013 39.049 26.532 39.864 26.916C40.679 27.3 41.663 27.492 42.814 27.492C43.965 27.492 44.948 27.3 45.764 26.916C46.579 26.532 47.243 26.013 47.754 25.357C48.265 24.702 48.633 23.959 48.857 23.127C49.08 22.296 49.193 21.417 49.193 20.489V0.00899506H57.395V21.16C57.393 23.207 57.049 25.069 56.362 26.748ZM88.307 33.966V0.00899506H111.137V6.91599H96.22V13.343H110.321V19.914H96.22V26.964H112V33.966H88.307ZM17.796 0H17.568H13.478C11.72 0 10.025 0.191996 8.394 0.575996C6.763 0.959996 5.324 1.56699 4.077 2.39899C2.83 3.22999 1.839 4.325 1.103 5.684C0.421 6.944 0.056 9.168 0.006 11.057H0V33.966H8.202V21.16H12.279C14.037 21.16 15.732 20.968 17.363 20.584C18.994 20.2 20.433 19.593 21.68 18.761C22.927 17.93 23.918 16.835 24.654 15.476C25.315 14.255 25.678 12.781 25.745 11.056H25.771V0H17.796ZM17.075 12.503C16.755 13.031 16.315 13.455 15.756 13.774C15.196 14.094 14.564 14.318 13.861 14.445C13.157 14.573 12.422 14.637 11.655 14.637H8.202V11.455C8.202 11.451 8.202 10.651 8.202 10.647C8.202 9.847 8.362 9.184 8.682 8.657C9.002 8.129 9.442 7.70499 10.001 7.38599C10.561 7.06599 11.193 6.842 11.896 6.715C12.6 6.587 13.335 6.52299 14.102 6.52299H17.569V11.057C17.51 11.618 17.318 12.1 17.075 12.503ZM87.546 33.966L79.023 20.008C79.901 19.672 80.712 19.257 81.454 18.762C82.701 17.931 83.692 16.836 84.428 15.477C85.089 14.256 85.452 12.782 85.519 11.057H85.545V0H77.571H77.343H73.253C71.495 0 69.8 0.191996 68.169 0.575996C66.538 0.959996 65.099 1.56699 63.852 2.39899C62.605 3.22999 61.614 4.325 60.878 5.684C60.196 6.944 59.831 9.168 59.781 11.057H59.775V33.966H67.977V21.16H70.948L77.953 33.966H87.546ZM67.977 11.456C67.977 11.452 67.977 10.652 67.977 10.648C67.977 9.84799 68.137 9.185 68.457 8.658C68.777 8.13 69.217 7.70599 69.776 7.38699C70.336 7.06699 70.968 6.843 71.671 6.716C72.375 6.588 73.11 6.52399 73.877 6.52399H77.344V11.058C77.286 11.619 77.095 12.101 76.851 12.504C76.531 13.032 76.091 13.456 75.532 13.775C74.972 14.095 74.34 14.319 73.637 14.446C72.933 14.574 72.198 14.638 71.431 14.638H67.978L67.977 11.456ZM1.299 50.045H6.911V50.993H0.233V40.509H6.734V41.457H1.299V45.055H6.378V46.003H1.299V50.045ZM27.51 49.438H27.54V40.509H28.606V50.993H27.273L21.172 41.975H21.142V50.993H20.076V40.509H21.409L27.51 49.438ZM43.532 50.045H49.144V50.993H42.465V40.509H48.966V41.457H43.531V45.055H48.61V46.003H43.531V50.045H43.532ZM63.375 50.993H62.309V40.509H65.389C65.902 40.509 66.379 40.559 66.818 40.657C67.257 40.756 67.637 40.916 67.958 41.138C68.279 41.36 68.528 41.649 68.706 42.004C68.884 42.359 68.973 42.794 68.973 43.307C68.973 43.692 68.904 44.043 68.766 44.358C68.628 44.674 68.44 44.948 68.203 45.18C67.966 45.412 67.685 45.597 67.359 45.735C67.033 45.873 66.678 45.962 66.293 46.002L69.358 50.992H68.055L65.153 46.09H63.376L63.375 50.993ZM63.375 45.173H65.226C66.085 45.173 66.746 45.017 67.21 44.707C67.674 44.396 67.906 43.93 67.906 43.308C67.906 42.963 67.842 42.671 67.713 42.434C67.585 42.197 67.407 42.005 67.18 41.856C66.953 41.708 66.677 41.599 66.351 41.53C66.025 41.461 65.665 41.426 65.27 41.426H63.375V45.173ZM90.208 42.404C89.843 42.019 89.408 41.72 88.905 41.508C88.402 41.296 87.824 41.19 87.172 41.19C86.501 41.19 85.896 41.313 85.358 41.56C84.82 41.806 84.363 42.139 83.988 42.558C83.613 42.977 83.324 43.462 83.122 44.014C82.92 44.566 82.818 45.148 82.818 45.759C82.818 46.37 82.919 46.952 83.122 47.504C83.324 48.056 83.613 48.539 83.988 48.953C84.363 49.367 84.82 49.697 85.358 49.944C85.896 50.19 86.501 50.314 87.172 50.314C87.764 50.314 88.307 50.25 88.801 50.122C89.295 49.994 89.694 49.831 90.001 49.633V46.449H87.558V45.501H91.068V50.237C90.495 50.583 89.878 50.841 89.217 51.009C88.556 51.177 87.869 51.261 87.159 51.261C86.369 51.261 85.639 51.123 84.967 50.846C84.296 50.57 83.718 50.187 83.234 49.698C82.75 49.209 82.373 48.629 82.101 47.958C81.829 47.287 81.694 46.551 81.694 45.752C81.694 44.953 81.832 44.217 82.109 43.546C82.385 42.875 82.768 42.295 83.257 41.806C83.746 41.317 84.323 40.935 84.99 40.658C85.656 40.382 86.379 40.243 87.159 40.243C87.998 40.243 88.729 40.368 89.351 40.619C89.973 40.87 90.506 41.218 90.95 41.664L90.208 42.404ZM107.756 50.993H106.69V46.476L102.766 40.508H104.099L107.253 45.587L110.437 40.508H111.681L107.757 46.476V50.993H107.756Z" fill="url(#paint0_linear)"/>
<path d="M56.362 26.748C55.674 28.427 54.691 29.866 53.412 31.065C52.133 32.264 50.59 33.199 48.784 33.871C46.977 34.543 44.971 34.878 42.765 34.878C40.527 34.878 38.512 34.542 36.722 33.871C34.931 33.2 33.413 32.264 32.166 31.065C30.919 29.866 29.96 28.427 29.288 26.748C28.616 25.069 28.281 23.207 28.281 21.16V0.00899506H36.435V20.489C36.435 21.417 36.555 22.296 36.795 23.127C37.035 23.959 37.402 24.702 37.898 25.357C38.393 26.013 39.049 26.532 39.864 26.916C40.679 27.3 41.663 27.492 42.814 27.492C43.965 27.492 44.948 27.3 45.764 26.916C46.579 26.532 47.243 26.013 47.754 25.357C48.265 24.702 48.633 23.959 48.857 23.127C49.08 22.296 49.193 21.417 49.193 20.489V0.00899506H57.395V21.16C57.393 23.207 57.049 25.069 56.362 26.748ZM88.307 33.966V0.00899506H111.137V6.91599H96.22V13.343H110.321V19.914H96.22V26.964H112V33.966H88.307ZM17.796 0H17.568H13.478C11.72 0 10.025 0.191996 8.394 0.575996C6.763 0.959996 5.324 1.56699 4.077 2.39899C2.83 3.22999 1.839 4.325 1.103 5.684C0.421 6.944 0.056 9.168 0.006 11.057H0V33.966H8.202V21.16H12.279C14.037 21.16 15.732 20.968 17.363 20.584C18.994 20.2 20.433 19.593 21.68 18.761C22.927 17.93 23.918 16.835 24.654 15.476C25.315 14.255 25.678 12.781 25.745 11.056H25.771V0H17.796ZM17.075 12.503C16.755 13.031 16.315 13.455 15.756 13.774C15.196 14.094 14.564 14.318 13.861 14.445C13.157 14.573 12.422 14.637 11.655 14.637H8.202V11.455C8.202 11.451 8.202 10.651 8.202 10.647C8.202 9.847 8.362 9.184 8.682 8.657C9.002 8.129 9.442 7.70499 10.001 7.38599C10.561 7.06599 11.193 6.842 11.896 6.715C12.6 6.587 13.335 6.52299 14.102 6.52299H17.569V11.057C17.51 11.618 17.318 12.1 17.075 12.503ZM87.546 33.966L79.023 20.008C79.901 19.672 80.712 19.257 81.454 18.762C82.701 17.931 83.692 16.836 84.428 15.477C85.089 14.256 85.452 12.782 85.519 11.057H85.545V0H77.571H77.343H73.253C71.495 0 69.8 0.191996 68.169 0.575996C66.538 0.959996 65.099 1.56699 63.852 2.39899C62.605 3.22999 61.614 4.325 60.878 5.684C60.196 6.944 59.831 9.168 59.781 11.057H59.775V33.966H67.977V21.16H70.948L77.953 33.966H87.546ZM67.977 11.456C67.977 11.452 67.977 10.652 67.977 10.648C67.977 9.84799 68.137 9.185 68.457 8.658C68.777 8.13 69.217 7.70599 69.776 7.38699C70.336 7.06699 70.968 6.843 71.671 6.716C72.375 6.588 73.11 6.52399 73.877 6.52399H77.344V11.058C77.286 11.619 77.095 12.101 76.851 12.504C76.531 13.032 76.091 13.456 75.532 13.775C74.972 14.095 74.34 14.319 73.637 14.446C72.933 14.574 72.198 14.638 71.431 14.638H67.978L67.977 11.456ZM1.299 50.045H6.911V50.993H0.233V40.509H6.734V41.457H1.299V45.055H6.378V46.003H1.299V50.045ZM27.51 49.438H27.54V40.509H28.606V50.993H27.273L21.172 41.975H21.142V50.993H20.076V40.509H21.409L27.51 49.438ZM43.532 50.045H49.144V50.993H42.465V40.509H48.966V41.457H43.531V45.055H48.61V46.003H43.531V50.045H43.532ZM63.375 50.993H62.309V40.509H65.389C65.902 40.509 66.379 40.559 66.818 40.657C67.257 40.756 67.637 40.916 67.958 41.138C68.279 41.36 68.528 41.649 68.706 42.004C68.884 42.359 68.973 42.794 68.973 43.307C68.973 43.692 68.904 44.043 68.766 44.358C68.628 44.674 68.44 44.948 68.203 45.18C67.966 45.412 67.685 45.597 67.359 45.735C67.033 45.873 66.678 45.962 66.293 46.002L69.358 50.992H68.055L65.153 46.09H63.376L63.375 50.993ZM63.375 45.173H65.226C66.085 45.173 66.746 45.017 67.21 44.707C67.674 44.396 67.906 43.93 67.906 43.308C67.906 42.963 67.842 42.671 67.713 42.434C67.585 42.197 67.407 42.005 67.18 41.856C66.953 41.708 66.677 41.599 66.351 41.53C66.025 41.461 65.665 41.426 65.27 41.426H63.375V45.173ZM90.208 42.404C89.843 42.019 89.408 41.72 88.905 41.508C88.402 41.296 87.824 41.19 87.172 41.19C86.501 41.19 85.896 41.313 85.358 41.56C84.82 41.806 84.363 42.139 83.988 42.558C83.613 42.977 83.324 43.462 83.122 44.014C82.92 44.566 82.818 45.148 82.818 45.759C82.818 46.37 82.919 46.952 83.122 47.504C83.324 48.056 83.613 48.539 83.988 48.953C84.363 49.367 84.82 49.697 85.358 49.944C85.896 50.19 86.501 50.314 87.172 50.314C87.764 50.314 88.307 50.25 88.801 50.122C89.295 49.994 89.694 49.831 90.001 49.633V46.449H87.558V45.501H91.068V50.237C90.495 50.583 89.878 50.841 89.217 51.009C88.556 51.177 87.869 51.261 87.159 51.261C86.369 51.261 85.639 51.123 84.967 50.846C84.296 50.57 83.718 50.187 83.234 49.698C82.75 49.209 82.373 48.629 82.101 47.958C81.829 47.287 81.694 46.551 81.694 45.752C81.694 44.953 81.832 44.217 82.109 43.546C82.385 42.875 82.768 42.295 83.257 41.806C83.746 41.317 84.323 40.935 84.99 40.658C85.656 40.382 86.379 40.243 87.159 40.243C87.998 40.243 88.729 40.368 89.351 40.619C89.973 40.87 90.506 41.218 90.95 41.664L90.208 42.404ZM107.756 50.993H106.69V46.476L102.766 40.508H104.099L107.253 45.587L110.437 40.508H111.681L107.757 46.476V50.993H107.756Z" stroke="#818E9B" stroke-width="0.2" mask="url(#path-1-inside-1)"/>
</g>
<defs>
<filter id="filter0_b" x="-4" y="-4" width="120" height="59.261" filterUnits="userSpaceOnUse" color-interpolation-filters="sRGB">
<feFlood flood-opacity="0" result="BackgroundImageFix"/>
<feGaussianBlur in="BackgroundImage" stdDeviation="2"/>
<feComposite in2="SourceAlpha" operator="in" result="effect1_backgroundBlur"/>
<feBlend mode="normal" in="SourceGraphic" in2="effect1_backgroundBlur" result="shape"/>
</filter>
<linearGradient id="paint0_linear" x1="60.5" y1="-6.5" x2="60.5" y2="59.5" gradientUnits="userSpaceOnUse">
<stop offset="0.629651" stop-color="#6AC7EE"/>
<stop offset="0.699489" stop-color="#334D6E"/>
</linearGradient>
</defs>
</svg>
